<?xml version="1.0" standalone="no"?>
<!DOCTYPE svg PUBLIC "-//W3C//DTD SVG 20010904//EN"
 "http://www.w3.org/TR/2001/REC-SVG-20010904/DTD/svg10.dtd">
<svg version="1.0" xmlns="http://www.w3.org/2000/svg"
 width="516.000000pt" height="483.000000pt" viewBox="0 0 516.000000 483.000000"
 preserveAspectRatio="xMidYMid meet">

<g transform="translate(0.000000,483.000000) scale(0.100000,-0.100000)"
fill="#000000" stroke="none">
<path d="M2565 4558 c-21 -18 -60 -51 -85 -73 -25 -22 -70 -60 -99 -85 -29
-25 -144 -123 -255 -219 -110 -95 -223 -192 -251 -216 -124 -106 -201 -171
-216 -185 -9 -8 -38 -34 -65 -57 -27 -22 -152 -130 -279 -239 -126 -109 -239
-205 -249 -213 -10 -9 -42 -36 -70 -61 -29 -25 -78 -67 -110 -95 -33 -27 -64
-55 -70 -60 -16 -15 -334 -286 -456 -390 -58 -48 -109 -92 -114 -96 -7 -7 89
-129 119 -151 17 -13 23 -10 107 65 46 40 97 84 114 97 27 22 639 547 670 575
18 16 105 91 349 300 285 244 401 344 430 370 198 176 558 476 569 473 14 -3
66 -47 226 -189 47 -41 146 -129 220 -193 74 -65 149 -130 165 -144 17 -15
102 -90 190 -167 88 -77 174 -152 190 -166 17 -15 71 -62 121 -105 109 -95
234 -205 330 -290 39 -34 91 -80 116 -101 25 -21 103 -89 174 -152 71 -62 143
-125 159 -140 17 -14 85 -74 153 -133 68 -60 127 -108 132 -108 10 0 145 149
139 154 -25 20 -235 201 -239 205 -4 6 -109 98 -215 190 -16 14 -64 55 -105
91 -41 36 -88 76 -104 90 -16 14 -34 30 -40 35 -18 17 -655 576 -710 624 -28
24 -69 60 -92 80 -22 20 -67 59 -99 86 -33 28 -82 71 -110 96 -27 25 -160 141
-295 259 -135 117 -259 226 -276 242 l-30 28 -39 -32z"/>
<path d="M742 1577 l3 -824 39 -77 c65 -128 160 -205 297 -241 77 -21 2844
-21 2929 -1 136 33 253 128 312 256 35 74 38 156 38 938 l0 772 -105 0 -104 0
-3 -797 -3 -798 -22 -41 c-23 -44 -65 -83 -117 -112 -28 -15 -71 -17 -416 -17
l-385 0 -5 660 -5 660 -647 3 -648 2 -2 -42 c0 -24 -2 -248 -3 -498 -1 -250
-2 -531 -3 -623 l-2 -168 -382 3 c-341 3 -387 5 -418 20 -56 28 -97 69 -119
118 -20 44 -21 63 -21 838 l0 792 -105 0 -106 0 3 -823z m2246 -389 l-3 -553
-440 0 -440 0 -3 553 -2 552 445 0 445 0 -2 -552z"/>
</g>
</svg>
